# xmcd CD database file
#
# Track frame offsets:
#	150
#	36150
#	72450
#	77250
#	94575
#	105150
#	107325
#	131100
#	146175
#	149250
#	167475
#	171300
#	204750
#
# Disc length: 4504 seconds
#
# Revision: 0
# Processed by: cddbd v1.5.1PL2 Copyright (c) Steve Scherf et al.
# Submitted via: CDex 1.51
#
DISCID=a711960d
DTITLE=Djabe - Goes to festivals
DYEAR=2005
DGENRE=Jazz
TTITLE0=Slices of life
TTITLE1=Doromb
TTITLE2=Rochester intro
TTITLE3=Sheafs are dancing
TTITLE4=Flower stillness
TTITLE5=Burghausen intro
TTITLE6=First step
TTITLE7=Burghausen
TTITLE8=Pori intro
TTITLE9=Camel ride
TTITLE10=Stockholm intro
TTITLE11=Djabe Part II
TTITLE12=Hortobagy at winter  and  Hajduboszormeny QTime track
EXTD=YEAR: 2005
EXTT0=
EXTT1=
EXTT2=
EXTT3=
EXTT4=
EXTT5=
EXTT6=
EXTT7=
EXTT8=
EXTT9=
EXTT10=
EXTT11=
EXTT12=
PLAYORDER=
